<svg class="visual_1P1j" xmlns="http://www.w3.org/2000/svg" xmlns:xlink="http://www.w3.org/1999/xlink" width="582" height="306" fill="none"><path fill="#E5E5E5" d="M0 0h582v306H0z"/><path fill="#fff" d="M0 0h582v306H0z"/><path fill="#fff" d="M8 2h568v303H8z"/><path stroke="#CF4647" stroke-width="2" d="M8 3h568M8 303h564"/><path stroke="#0A0908" stroke-width="6" d="M66 4v114" opacity=".1"/><path stroke="#CF4647" stroke-width="6" d="M66 4v114" class="line_up_anim_1Wzq"/><path stroke="#0A0908" stroke-width="6" d="M281 4v95" opacity=".1"/><path stroke="#CF4647" stroke-width="6" d="M281 4v95" class="line_up_anim_1Wzq"/><path stroke="#0A0908" stroke-width="6" d="M293 191v113" opacity=".1"/><path stroke="#CF4647" stroke-width="6" d="M293 191v113" class="line_down_anim_2_Ng" opacity=".1"/><path stroke="#0A0908" stroke-width="6" d="M63 121h204" opacity=".1"/><path stroke="#CF4647" stroke-width="6" d="M63 121h204" class="line_up_anim_1Wzq second_1Ny5"/><path stroke="#0A0908" stroke-width="6" d="M506 4v114" opacity=".1"/><path stroke="#CF4647" stroke-width="6" d="M506 4v114" class="line_up_anim_1Wzq"/><path stroke="#0A0908" stroke-width="6" d="M509 121H318" opacity=".1"/><path stroke="#CF4647" stroke-width="6" d="M509 121H318" class="line_up_anim_1Wzq second_1Ny5" opacity=".1"/><path stroke="#0A0908" stroke-width="6" d="M278 183H98" opacity=".1"/><path stroke="#CF4647" stroke-width="6" d="M278 183H98" class="line_down_anim_2_Ng" opacity=".1"/><path stroke="#0A0908" stroke-width="6" d="M101.216 186L101 302" opacity=".1"/><path stroke="#CF4647" stroke-width="6" d="M101.216 186L101 302" class="line_down_anim_2_Ng second_1Ny5" opacity=".1"/><path stroke="#0A0908" stroke-width="6" d="M304 154l162 .003" opacity=".1"/><path stroke="#CF4647" stroke-width="6" d="M304 154l162 .003" class="line_down_anim_2_Ng" opacity=".1"/><path stroke="#0A0908" stroke-width="6" d="M463 156l.3 148" opacity=".1"/><path stroke="#CF4647" stroke-width="6" d="M463 156l.3 148" class="line_down_anim_2_Ng second_1Ny5" opacity=".1"/><g filter="url(#filter0_d)"><path fill="#F6F8FA" d="M210 57h164v164H210z"/></g><path fill="url(#pattern0)" d="M260 64h60v137h-60z"/><path stroke="#CF4647" stroke-width="6" d="M210.5 56.5h163v164h-163z" class="line_rectangle_2GxA"/><defs><pattern id="pattern0" width="1" height="1" patternContentUnits="objectBoundingBox"><use transform="matrix(.00448 0 0 .00196 -.01 0)" xlink:href="#image0"/></pattern><filter id="filter0_d" width="172" height="172" x="208" y="56" color-interpolation-filters="sRGB" filterUnits="userSpaceOnUse"><feFlood flood-opacity="0" result="BackgroundImageFix"/><feColorMatrix in="SourceAlpha" values="0 0 0 0 0 0 0 0 0 0 0 0 0 0 0 0 0 0 127 0"/><feOffset dx="2" dy="3"/><feGaussianBlur stdDeviation="2"/><feColorMatrix values="0 0 0 0 0 0 0 0 0 0 0 0 0 0 0 0 0 0 0.15 0"/><feBlend in2="BackgroundImageFix" result="effect1_dropShadow"/><feBlend in="SourceGraphic" in2="effect1_dropShadow" result="shape"/></filter><image id="image0" width="228" height="510" data-name="gulp-2x.png" xlink:href="/img/gulp-2x.png"/></defs></svg>